<svg xmlns="http://www.w3.org/2000/svg" enable-background="new 0 0 64 64" viewBox="0 0 64 64"><linearGradient id="a" x1="21.427" x2="41.034" y1="25.386" y2="59.347" gradientUnits="userSpaceOnUse"><stop offset="0" stop-color="#fff" stop-opacity=".25"/><stop offset="1" stop-color="#ff9d23" stop-opacity=".8"/></linearGradient><path fill="url(#a)" d="M18,27.8c1.5-1.2,3.1-2.4,5.1-3.1c2.3-0.8,5-0.7,7.5-0.1c2.4,0.6,4.7,1.6,6.9,2.5c6.3,2.8,12.6,5.6,18.9,8.4
		c1.4,0.6,2.8,1.3,3.8,2.2c1.8,1.8,1.8,4.4,0.5,6.5c-1.3,2.1-3.5,3.7-5.9,5c-2.4,1.4-4.9,2.6-7,4.2c-2,1.5-3.5,3.3-5.4,4.8
		c-5.9,4.6-15.7,5.8-23.1,2.9c-5.4-2.1-9.3-6-13-9.7c-2.7-2.7-5.5-5.7-5.5-9.1c0-3.3,2.8-6.2,6.7-7.4C11.6,33.8,14.8,30.3,18,27.8z"/><polyline fill="none" stroke="#ff9d23" stroke-linecap="round" stroke-linejoin="round" stroke-miterlimit="10" stroke-width="1.345" points=".7 22.8 2.6 20.9 4.3 22.6"/><polyline fill="none" stroke="#9495fa" stroke-linecap="round" stroke-linejoin="round" stroke-miterlimit="10" stroke-width="1.229" points="60.8 41.3 62.5 39.6 64 41.1"/><line x1="2.5" y1="32" y2="34.5" fill="none" stroke="#9495fa" stroke-linecap="round" stroke-linejoin="round" stroke-miterlimit="10" stroke-width="1.345"/><line x1="60.7" x2="58" y1="23.7" y2="26.3" fill="none" stroke="#ff4b4d" stroke-linecap="round" stroke-linejoin="round" stroke-miterlimit="10" stroke-width="1.229"/><line x1="27.3" x2="24.6" y1="58.1" y2="60.7" fill="none" stroke="#0000db" stroke-linecap="round" stroke-linejoin="round" stroke-miterlimit="10" stroke-width="1.229"/><line x1="51.9" x2="49.2" y1="58.1" y2="60.7" fill="none" stroke="#ff4b4d" stroke-linecap="round" stroke-linejoin="round" stroke-miterlimit="10" stroke-width="1.229"/><path fill="#9495fa" stroke="#0000db" stroke-linecap="round" stroke-linejoin="round" stroke-miterlimit="10" stroke-width="1.295" d="M35.7,15H15.1c-3.5,0-6.3,2.9-6.3,6.4v20c0,3.5,2.8,6.4,6.3,6.4h0.1l0.2,5c0.1,1.2,1.5,1.9,2.5,1.2l8.7-6.2
			h22.7c3.5,0,6.3-2.9,6.3-6.4v-20c0-3.5-2.8-6.4-6.3-6.4h-7.7H35.7z"/><line x1="19.6" x2="44.7" y1="31.3" y2="31.3" fill="none" stroke="#fff" stroke-linecap="round" stroke-linejoin="round" stroke-miterlimit="10" stroke-width="1.295"/><line x1="19.6" x2="44.7" y1="38.5" y2="38.5" fill="none" stroke="#fff" stroke-linecap="round" stroke-linejoin="round" stroke-miterlimit="10" stroke-width="1.295"/><line x1="19.6" x2="44.7" y1="24.2" y2="24.2" fill="none" stroke="#fff" stroke-linecap="round" stroke-linejoin="round" stroke-miterlimit="10" stroke-width="1.295"/><path fill="#ff9d23" stroke="#0000db" stroke-linecap="round" stroke-linejoin="round" stroke-miterlimit="10" stroke-width="1.295" d="M49.5,4.1L48,6h0l-3.4-2.6l1.5-1.9c0.3-0.4,1-0.5,1.4-0.2l1.8,1.3C49.7,3,49.8,3.6,49.5,4.1z"/><polygon fill="#fed3be" stroke="#0000db" stroke-linecap="round" stroke-linejoin="round" stroke-miterlimit="10" stroke-width="1.295" points="36.6 21.1 32.1 23.4 33.2 18.5"/><polygon fill="#f86c66" stroke="#0000db" stroke-linecap="round" stroke-linejoin="round" stroke-miterlimit="10" stroke-width="1.295" points="48 6 39.3 17.5 38.3 18.8 36.6 21.1 33.2 18.5 34.9 16.2 35.9 14.9 44.6 3.5"/></svg>