<svg xmlns="http://www.w3.org/2000/svg" data-name="Layer 1" viewBox="0 0 125 125"><path fill="#f7be56" d="M74.82356,53.03635c1.52514-3.41762,5.34784-5.10767,7.87764-7.86572A12.715,12.715,0,0,0,84.682,31.30675a7.73586,7.73586,0,0,0-2.2935-2.89484,4.44,4.44,0,0,0-3.52032-.83429A5.46894,5.46894,0,0,0,75.412,30.8743c-.68062,1.50394-1.0021,3.14892-1.66174,4.66222-1.76858,4.0573-5.69556,6.67551-9.4215,9.06446q-6.00447,3.84995-12.0091,7.69986l-8.92086,5.1241L32.48466,63.93565l.53687,29.4327,18.79014,1.98878H84.31528V56.11354H74.22933A7.09713,7.09713,0,0,1,74.82356,53.03635Z"/><path fill="#fcd462" d="M94.19643 56.11354H74.43405a4.90545 4.90545 0 0 0 0 9.8109H94.19643a4.90545 4.90545 0 1 0 0-9.8109zM94.19643 75.73534H74.43405a4.90545 4.90545 0 0 0 0 9.8109H94.19643a4.90545 4.90545 0 1 0 0-9.8109z"/><path fill="#fcd462" d="M91.573 85.54624H73.65823a4.90545 4.90545 0 0 0 0 9.81089H91.573a4.90545 4.90545 0 1 0 0-9.81089zM97.116 65.92444H73.65823a4.90545 4.90545 0 0 0 0 9.8109H97.116a4.90545 4.90545 0 1 0 0-9.8109z"/><path fill="#ebf0f3" d="M76.63425 58.48557l-4.26154-.37975a.8664.8664 0 0 0-.94331.863v4.10027a.86641.86641 0 0 0 .94331.86305l4.26154-.37975a.86643.86643 0 0 0 .78956-.86305V59.34862A.86643.86643 0 0 0 76.63425 58.48557zM76.63425 68.29647l-4.26154-.37975a.8664.8664 0 0 0-.94331.863V72.88a.8664.8664 0 0 0 .94331.86305l4.26154-.37974a.86644.86644 0 0 0 .78956-.86305V69.15952A.86643.86643 0 0 0 76.63425 68.29647zM76.63425 78.10736l-4.26154-.37974a.8664.8664 0 0 0-.94331.863V82.6909a.8664.8664 0 0 0 .94331.86305l4.26154-.37974a.86644.86644 0 0 0 .78956-.86305V78.97041A.86644.86644 0 0 0 76.63425 78.10736zM75.9332 87.91826l-4.26154-.37974a.8664.8664 0 0 0-.94331.863V92.5018a.8664.8664 0 0 0 .94331.86305l4.26154-.37974a.86644.86644 0 0 0 .78956-.86305V88.78131A.86644.86644 0 0 0 75.9332 87.91826z"/><rect width="24.208" height="45.65" x="22.979" y="51.862" fill="#3a556a"/></svg>