<svg xmlns="http://www.w3.org/2000/svg" enable-background="new 0 0 66 66" viewBox="0 0 66 66"><ellipse cx="32.285" cy="10.168" rx="15.302" ry="9.168"/><ellipse cx="21.846" cy="17.125" rx="5.655" ry="12.057" transform="rotate(-6.28 21.844 17.127)"/><path d="M50.5993,16.9023c-0.2863,1.9997-0.9441,3.8183-1.8262,5.2486c0.0123,0.0095-0.0101,0.0215-0.0101,0.0215
		c-0.2994,0.5085-0.6371,0.9676-0.99,1.3759l-0.967,0.0686c-0.2847-1.0781-0.7629-2.1118-1.5733-2.935
		c-0.6498-0.6793-1.4735-1.2012-2.2103-1.8017c-1.4382-1.1934-2.497-2.7453-3.045-4.4372c0.8695-3.7298,3.0286-6.5669,5.3507-7.1045
		c0.3755-0.0889,0.7554-0.1158,1.1397-0.0808C49.4744,7.5626,51.319,11.8772,50.5993,16.9023z"/><path fill="#D2DBE0" d="M64.176,65H1.824l1.5125-5.7789C5.6502,50.3814,13.637,44.216,22.7745,44.216h20.4511
		c9.1375,0,17.1243,6.1654,19.4379,15.0051L64.176,65z"/><path fill="#3D2F46" d="M30.9476 54.2604c.0826.2659.3287.447.6071.447h2.8883c.2784 0 .5245-.1812.6071-.447l.7521-2.4192c.1272-.4092-.1786-.8245-.6071-.8245h-4.3925c-.4285 0-.7343.4153-.6071.8245L30.9476 54.2604zM34.9342 55.7714c-.0352-.2997-.2908-.5288-.5905-.5288h-2.6884c-.3085 0-.5553.2291-.5905.5288L29.8925 65h6.2052L34.9342 55.7714z"/><path fill="#B9C1C6" d="M42.8687,47.2082l0.1077,6.5502c0.012,0.7297-0.7899,1.1821-1.4082,0.7943l-8.5486-5.3609l-8.606,5.398
			c-0.6057,0.3799-1.3943-0.0463-1.4083-0.7612l-0.1244-6.3638c-0.0667-3.9795,3.5938-5.4281,3.4936-5.3406
			c0.7411-0.3389,1.5465-0.5143,2.3615-0.5143h8.4547C40.2696,41.61,42.8244,44.0795,42.8687,47.2082z"/><path fill="#F8A771" d="M39.5064,32.5557v9.3668c0,3.8234-2.8259,6.9215-6.3134,6.9215h-0.3875
		c-3.4875,0-6.3134-3.0981-6.3134-6.9215v-9.3668H39.5064z"/><path fill="#FAB687" d="M47.5866,22.4614c0,1.3486-0.1049,2.6762-0.2958,3.9511c-1.3644,8.9559-7.2418,15.6886-14.2928,15.6886
		s-12.9284-6.7327-14.2928-15.6886c-0.1908-1.2749-0.2958-2.6025-0.2958-3.9511c0-5.4368,1.6411-10.3467,4.2936-13.908
		c2.6429-3.5402,6.2781-5.7318,10.295-5.7318s7.6521,2.1916,10.295,5.7318C45.9456,12.1147,47.5866,17.0247,47.5866,22.4614z"/><path d="M48.4128,23.4232c0.01,0.01-0.01,0.02-0.01,0.02c-0.1,0.4198-0.2099,0.8399-0.3299,1.2597h-1.4497
		c-0.8664-5.1012-5.4887-4.4161-5.5887-11.4072c-11.2858,5.0914-13.621,0.8881-18.4357,0.1299
		c-4.9992-0.8658-2.0351,5.4014-2.8493,8.828c-0.2417,1.0116-0.5303,1.3314-0.6698,2.4494h-0.9098
		c-0.2923-1.3227-2.7406-9.9495-0.7098-11.1773c-1.2657-3.9362,0.7147-8.015,4.4048-9.9114
		c1.2445-0.6396,2.8526-1.3859,3.9932-1.6259c4.1244-0.8681,6.1123-1.4394,11.6373-0.01c5.0144,1.2902,8.0978,4.4087,9.1379,7.6581
		C48.5149,10.0996,50.2551,16.2218,48.4128,23.4232z"/><path fill="#FAB687" d="M47.877 20.6077c-1.4913 0-2.8099 2.0709-2.9426 4.5748-.1298 2.4495.9287 4.3962 2.3618 4.3962s2.7437-1.9468 2.9311-4.3962C50.4188 22.6787 49.3682 20.6077 47.877 20.6077zM18.1215 20.6077c-1.4913 0-2.5418 2.0709-2.3502 4.5748.1874 2.4495 1.498 4.3962 2.9311 4.3962s2.4916-1.9468 2.3618-4.3962C20.9314 22.6787 19.6127 20.6077 18.1215 20.6077z"/><circle cx="27.56" cy="26.306" r="1.542" fill="#3D2F46"/><circle cx="38.436" cy="26.306" r="1.542" fill="#3D2F46"/><path fill="#3D2F46" d="M28.8319 22.539l-.0191-.0977c-.0764-.3898-.4543-.6438-.8441-.5675l-3.23.6327c-.3898.0764-.6439.4543-.5676.8442l.0191.0974c.0764.3899.4543.644.8441.5676l3.23-.6328C28.6542 23.3067 28.9083 22.9288 28.8319 22.539zM41.2574 22.5065l-3.23-.6327c-.3898-.0763-.7677.1777-.8441.5675l-.0191.0977c-.0764.3898.1778.7677.5676.844l3.23.6328c.3898.0764.7678-.1777.8441-.5676l.0191-.0974C41.9013 22.9609 41.6472 22.583 41.2574 22.5065z"/><g><path fill="#663430" d="M37.9298,33.6143c-0.1396,2.3554-2.0633,4.2099-4.4433,4.4348c-3.1063,0.1728-5.2838-1.9259-5.4203-4.4348
			H37.9298z"/><path fill="#FFF" d="M35.4491,33.6143v0.8751c0,0.2039-0.1445,0.3568-0.3228,0.3568h-4.2819
			c-0.1784,0-0.3313-0.1529-0.3313-0.3568v-0.8751H35.4491z"/><path fill="#EF4F63" d="M36.63,36.5453c-1.4248,1.4292-3.312,1.7957-4.9954,1.3423l0.0085-0.0085
			C32.3883,36.0445,34.8018,35.6312,36.63,36.5453z"/></g></svg>