<svg xmlns="http://www.w3.org/2000/svg" width="64" height="64" viewBox="0 0 16.933 16.933"><g stroke-width=".402" transform="translate(-129.173 -173.224) scale(2.33348)"><path style="line-height:normal;font-variant-ligatures:normal;font-variant-position:normal;font-variant-caps:normal;font-variant-numeric:normal;font-variant-alternates:normal;font-feature-settings:normal;text-indent:0;text-align:start;text-decoration-line:none;text-decoration-style:solid;text-decoration-color:#000;text-transform:none;text-orientation:mixed;shape-padding:0;isolation:auto;mix-blend-mode:normal" fill="#f9f9f9" d="m 59.996124,77.328205 c -0.07185,0.01324 -0.157743,0.05923 -0.210937,0.119141 -0.05319,0.05991 -0.07809,0.121152 -0.0957,0.179687 -0.03522,0.117071 -0.04581,0.237557 -0.05273,0.414063 l -0.09375,2.404296 c -0.01872,0.477071 0.417461,0.81836 0.882812,0.81836 0.46542,0 0.907628,-0.341364 0.882812,-0.822266 l -0.124999,-2.404297 c -0.009,-0.174116 -0.01729,-0.291265 -0.04687,-0.402343 -0.01479,-0.05554 -0.03607,-0.112296 -0.08398,-0.173828 -0.04791,-0.06153 -0.13323,-0.117174 -0.208984,-0.132813 -0.151509,-0.03128 -0.216005,0.01127 -0.269531,0.02539 -0.05353,0.01412 -0.09469,0.02344 -0.148438,0.02344 -0.054,0 -0.101665,-0.0089 -0.160156,-0.02344 -0.05849,-0.01457 -0.12583,-0.05187 -0.269531,-0.02539 z" color="#000" font-family="sans-serif" font-weight="400" overflow="visible"/><path style="line-height:normal;font-variant-ligatures:normal;font-variant-position:normal;font-variant-caps:normal;font-variant-numeric:normal;font-variant-alternates:normal;font-feature-settings:normal;text-indent:0;text-align:start;text-decoration-line:none;text-decoration-style:solid;text-decoration-color:#000;text-transform:none;text-orientation:mixed;shape-padding:0;isolation:auto;mix-blend-mode:normal" fill="#00bdc5" d="m 60.425993,74.460807 c -0.400045,3e-6 -0.753593,0.217875 -0.990535,0.533578 -0.23694,0.315702 -0.373174,0.734652 -0.373174,1.189521 2e-6,0.454869 0.136234,0.871618 0.373174,1.187317 0.236942,0.315703 0.59049,0.533028 0.990535,0.533028 0.400044,0 0.753039,-0.217325 0.989982,-0.533028 0.236939,-0.315699 0.373171,-0.732448 0.373171,-1.187317 3e-6,-0.454869 -0.136232,-0.873819 -0.373171,-1.189521 -0.236943,-0.315703 -0.589938,-0.533578 -0.989982,-0.533578 z" color="#000" font-family="sans-serif" font-weight="400" overflow="visible"/><path style="line-height:normal;font-variant-ligatures:normal;font-variant-position:normal;font-variant-caps:normal;font-variant-numeric:normal;font-variant-alternates:normal;font-feature-settings:normal;text-indent:0;text-align:start;text-decoration-line:none;text-decoration-style:solid;text-decoration-color:#000;text-transform:none;text-orientation:mixed;shape-padding:0;isolation:auto;mix-blend-mode:normal" fill="#eee" d="m 57.169953,77.328205 c -0.07185,0.01324 -0.157743,0.05923 -0.210938,0.119141 -0.05319,0.05991 -0.08005,0.121152 -0.09766,0.179687 -0.03522,0.117071 -0.04386,0.237557 -0.05078,0.414063 l -0.09375,2.404296 c -0.01872,0.477071 0.417461,0.81836 0.882812,0.81836 0.465421,0 0.905673,-0.341365 0.88086,-0.822266 L 58.35745,78.037189 c -0.009,-0.174116 -0.01729,-0.291265 -0.04687,-0.402343 -0.01479,-0.05554 -0.03607,-0.112296 -0.08398,-0.173828 -0.04791,-0.06153 -0.135183,-0.117174 -0.210937,-0.132813 -0.151509,-0.03128 -0.214052,0.01127 -0.267578,0.02539 -0.05353,0.01412 -0.09469,0.02344 -0.148438,0.02344 -0.054,0 -0.101665,-0.0089 -0.160156,-0.02344 -0.05849,-0.01457 -0.12583,-0.05187 -0.269531,-0.02539 z" color="#000" font-family="sans-serif" font-weight="400" overflow="visible"/><path style="line-height:normal;font-variant-ligatures:normal;font-variant-position:normal;font-variant-caps:normal;font-variant-numeric:normal;font-variant-alternates:normal;font-feature-settings:normal;text-indent:0;text-align:start;text-decoration-line:none;text-decoration-style:solid;text-decoration-color:#000;text-transform:none;text-orientation:mixed;shape-padding:0;isolation:auto;mix-blend-mode:normal" fill="#00adb5" d="m 56.841991,74.460807 c -0.153845,0 -0.315121,0.06175 -0.420026,0.168122 -0.104905,0.10637 -0.155008,0.233364 -0.185762,0.359393 -0.05037,0.206446 -0.0542,0.433878 -0.05457,0.671929 -0.0014,0.01228 -0.002,0.02461 -0.0017,0.03693 v 0.119064 0.357739 0.0039 c 0,0.0014 5.64e-4,0.0025 5.64e-4,0.0039 8.7e-5,0.01106 8.47e-4,0.0221 0.0023,0.03307 0.0076,0.444421 0.146129,0.852845 0.385851,1.160309 0.246487,0.316143 0.610187,0.529167 1.019198,0.529167 h 0.0215 c 0.409008,0 0.773261,-0.213024 1.019748,-0.529167 0.238308,-0.305652 0.376213,-0.711223 0.385298,-1.152593 6e-6,-1.86e-4 -3e-6,-2.82e-4 0,-5.64e-4 0.0023,-0.01386 0.0032,-0.02785 0.0033,-0.04189 2.3e-5,-0.002 2.3e-5,-0.004 0,-0.0061 V 75.816244 75.69718 c 3.4e-5,-0.0105 -5.64e-4,-0.02097 -0.0017,-0.03142 7.2e-5,-0.239068 -0.0023,-0.467191 -0.05292,-0.675239 -0.03071,-0.126091 -0.081,-0.255016 -0.185758,-0.361597 -0.104758,-0.106582 -0.265899,-0.168123 -0.420026,-0.168123 -0.136017,0 -0.275164,0.05038 -0.378686,0.135049 -0.103262,-0.08466 -0.242584,-0.134919 -0.378686,-0.135049 h -5.64e-4 c -0.135851,1.33e-4 -0.275299,0.05049 -0.378686,0.135049 -0.103386,-0.0847 -0.242485,-0.135049 -0.378683,-0.135049 z" color="#000" font-family="sans-serif" font-weight="400" overflow="visible"/><path style="line-height:normal;font-variant-ligatures:normal;font-variant-position:normal;font-variant-caps:normal;font-variant-numeric:normal;font-variant-alternates:normal;font-feature-settings:normal;text-indent:0;text-align:start;text-decoration-line:none;text-decoration-style:solid;text-decoration-color:#000;text-transform:none;text-orientation:mixed;shape-padding:0;isolation:auto;mix-blend-mode:normal" fill="#393e46" d="m 201.08594,259.57812 c -0.54512,0 -1.11657,0.21881 -1.48828,0.59571 -0.37171,0.3769 -0.54924,0.82688 -0.65821,1.27344 -0.17848,0.73151 -0.19169,1.53719 -0.19336,2.38085 a 1.0001,1.0001 0 0 0 -0.006,0.13086 v 0.42188 1.26758 0.0137 c 0,10e-4 0,0.003 0,0.004 a 1.0001,1.0001 0 0 0 0.0117,0.16015 c 0.0333,1.5616 0.52191,2.99648 1.36524,4.07813 0.29421,0.37735 0.63866,0.70867 1.01758,0.98828 -0.1033,0.38699 -0.13744,0.7915 -0.16016,1.37109 l -0.33203,8.51953 c -0.0663,1.69041 1.48002,2.90039 3.1289,2.90039 1.64913,0 3.20902,-1.21008 3.1211,-2.91406 l -0.4375,-8.51953 c -0.0285,-0.55088 -0.0626,-0.93362 -0.14258,-1.29102 0.41463,-0.29182 0.78835,-0.64795 1.10547,-1.05468 0.84547,-1.08439 1.33419,-2.52364 1.36523,-4.08985 a 1.0001,1.0001 0 0 0 0.0117,-0.16601 v -1.68946 a 1.0001,1.0001 0 0 0 -0.006,-0.11132 c 1.6e-4,-0.84747 -0.008,-1.65539 -0.1875,-2.39258 -0.10881,-0.44678 -0.28701,-0.9036 -0.6582,-1.28125 -0.37119,-0.37765 -0.94216,-0.59571 -1.48828,-0.59571 -0.48195,0 -0.97499,0.17851 -1.3418,0.47852 -0.36589,-0.29999 -0.85955,-0.47807 -1.3418,-0.47852 h -0.002 c -0.48136,4.6e-4 -0.97547,0.17891 -1.3418,0.47852 -0.36633,-0.30011 -0.8592,-0.47852 -1.34179,-0.47852 z m 12.69922,0 c -1.41748,10e-6 -2.67021,0.772 -3.50977,1.89063 -0.83955,1.11863 -1.32227,2.6031 -1.32227,4.21484 10e-6,1.61174 0.48272,3.08841 1.32227,4.20703 0.2605,0.34709 0.56399,0.65637 0.89649,0.92383 -0.12081,0.40958 -0.15941,0.83224 -0.1836,1.44922 l -0.33203,8.51953 c -0.0663,1.69041 1.48002,2.90039 3.12891,2.90039 1.64913,0 3.21488,-1.21008 3.12695,-2.91406 L 216.46875,272.25 c -0.0305,-0.58919 -0.0625,-0.99107 -0.15625,-1.36914 0.36612,-0.28138 0.69817,-0.61411 0.98047,-0.99024 0.83955,-1.11862 1.32226,-2.59529 1.32226,-4.20703 1e-5,-1.61174 -0.48271,-3.09621 -1.32226,-4.21484 -0.83956,-1.11863 -2.09033,-1.89063 -3.50781,-1.89063 z m -12.76954,2 c 0.006,-0.006 -0.0557,0 0.0703,0 0.12501,0 0.0565,-0.006 0.0625,0 0.006,0.006 0.0781,0.10721 0.13672,0.34766 0.1171,0.48088 0.13867,1.40166 0.13867,2.45508 v 1.26758 a 1.0001,1.0001 0 0 0 1.6582,0.76758 1.0001,1.0001 0 0 0 0.3418,-0.76758 v -1.26758 c 0,-1.05741 0.0219,-1.97577 0.13867,-2.45508 0.0585,-0.23967 0.13314,-0.34202 0.13867,-0.34766 0.006,-0.006 -0.0576,0 0.0684,0 0.12501,0 0.0565,-0.006 0.0625,0 0.006,0.006 0.0801,0.10721 0.13867,0.34766 0.11711,0.48088 0.13867,1.40166 0.13868,2.45508 v 1.26758 a 1.0001,1.0001 0 1 0 2,0 v -1.26758 c 0,-1.05741 0.0219,-1.97576 0.13867,-2.45508 0.0585,-0.23967 0.13314,-0.34202 0.13867,-0.34766 0.006,-0.006 -0.0576,0 0.0684,0 0.12501,0 0.0565,-0.006 0.0625,0 0.006,0.006 0.0801,0.10721 0.13867,0.34766 0.11711,0.48088 0.13867,1.40166 0.13867,2.45508 v 1.26758 0.0137 c 0,1.2081 -0.38631,2.28027 -0.95508,3.00977 -0.56877,0.72949 -1.27428,1.10742 -2.03515,1.10742 h -0.0762 c -0.76088,0 -1.46444,-0.37793 -2.03321,-1.10742 -0.56877,-0.7295 -0.95508,-1.80167 -0.95508,-3.00977 a 1.0001,1.0001 0 0 0 0,-0.0137 v -1.26758 c 0,-1.05741 0.0199,-1.97576 0.13672,-2.45508 0.0585,-0.23967 0.13315,-0.34202 0.13867,-0.34766 z m 12.76954,0 c 0.69739,10e-6 1.36377,0.36575 1.91015,1.09376 0.54639,0.728 0.91992,1.80559 0.91992,3.01171 0,1.20613 -0.37353,2.27395 -0.91992,3.00196 -0.54638,0.728 -1.21276,1.09375 -1.91015,1.09375 -0.6974,0 -1.36377,-0.36575 -1.91016,-1.09375 -0.54639,-0.72801 -0.92188,-1.79583 -0.92188,-3.00196 0,-1.20612 0.37549,-2.28371 0.92188,-3.01171 0.54639,-0.72801 1.21276,-1.09376 1.91016,-1.09376 z m -10.75586,10.22852 c 0.21678,0.0461 0.42706,0.10547 0.74218,0.10547 0.27139,0 0.43042,-0.0525 0.62891,-0.0918 0.0202,0.17313 0.0392,0.23295 0.0547,0.53321 l 0.44336,8.51953 c 0.0184,0.35795 -0.41894,0.81054 -1.12696,0.81054 -0.70827,0 -1.14351,-0.45181 -1.1289,-0.82421 l 0.33203,-8.51954 c 0.012,-0.30855 0.0337,-0.36676 0.0547,-0.5332 z m 10.01562,0 c 0.21742,0.0464 0.42307,0.10547 0.74024,0.10547 0.27428,0 0.43702,-0.0519 0.63672,-0.0918 0.0202,0.17313 0.0392,0.23295 0.0547,0.53321 l 0.43555,8.51953 c 0.0184,0.35795 -0.41894,0.81054 -1.12695,0.81054 -0.70828,0 -1.14352,-0.45181 -1.12891,-0.82421 l 0.33203,-8.51954 c 0.012,-0.30855 0.0356,-0.36676 0.0566,-0.5332 z" color="#000" font-family="sans-serif" font-weight="400" overflow="visible" transform="translate(.091 1.202) scale(.28222)"/></g></svg>