<svg xmlns="http://www.w3.org/2000/svg" viewBox="0 0 455.3 417.737"><g data-name="Layer 2"><g data-name="Layer 1"><path fill="#dae0e0" d="M230.8596,17.00971C281.94813,30.80827,303.308,1.189,350.18189,11.17378c51.05671,10.87584,79.22057,57.41469,81.89773,61.98664,32.84941,56.09786,31.66022,122.83045-8.78608,156.40832-22.44765,18.63577-45.14619,18.72256-115.619,49.35668-53.31691,23.17648-78.46187,51.53209-89.46564,57.758-56.0809,31.73065-120.27732,11.92018-167.464-26.97218-13.13262-10.8242-76.34908-63.50045-39.19311-140.17808C23.058,145.78821,24.15049,156.62492,75.12369,90.477,128.81051,20.80748,193.97066,7.04624,230.8596,17.00971Z"/><path fill="#3ca05d" d="M326.49055,369.47446a127.9093,127.9093,0,0,0,26.81973-12.81653c.58017-.368,8.96215-5.79426,13.76587-14.24053,1.00454-1.76628,2.02912-3.97479,1.424-6.40823a7.68625,7.68625,0,0,0-5.93356-5.4589c-2.01367-.3335-3.78952.41729-6.17089,1.42408-2.87568,1.2158-3.62068,2.28311-5.45882,2.13608a4.27672,4.27672,0,0,1-3.56015-2.13608c-1.11343-2.62644,2.78256-6.14088,3.08541-6.40831,2.48125-2.19128,3.77615-1.426,8.06963-3.56007a27.61434,27.61434,0,0,0,7.83231-5.93356c2.41308-2.43474,3.78034-3.85632,3.56015-5.69623a5.25843,5.25843,0,0,0-3.79749-4.03482c-2.49525-.66395-3.623,1.32694-6.40822.712-1.63815-.36167-3.53826-1.55606-3.79749-3.08541-.25962-1.53176,1.22441-2.8228,3.56015-4.98423,8.38552-7.76,9.635-9.97707,10.20572-11.15512.80117-1.65385,2.10718-4.34974,1.18674-7.35756a7.90872,7.90872,0,0,0-4.98423-5.22156c-5.03364-1.4434-11.84982,4.1066-14.47786,9.731-2.19587,4.69942-3.56016,8.30689-3.56016,8.307a11.78294,11.78294,0,0,1-2.84807,4.50949c-.65743.63184-2.151,2.06718-3.32282,1.66141-.75489-.2614-.87762-1.11424-1.66141-3.08541-1.16984-2.94215-1.75477-4.41323-2.84807-4.98423-1.65594-.86483-4.22886.26276-5.69623,1.66141-2.3104,2.20215-2.34331,5.51789-2.37341,8.5443-.02752,2.76631.44143,2.77669.94933,7.83231a57.60326,57.60326,0,0,1,.23733,8.54438c-.26751,5.56247-1.17081,6.35109-1.66141,6.64556-1.19761.71892-2.72566.16828-4.50948-.47466a16.0149,16.0149,0,0,1-6.40823-4.50957c-2.44367-2.71021-2.05889-3.74453-3.56015-4.74682a6.06468,6.06468,0,0,0-4.34306-.75395,12.0253,12.0253,0,0,0-8.71008,6.02348,20.17749,20.17749,0,0,0-.95006,1.85078c-3.644,8.10529-.81437,16.25363.712,20.64876C306.5055,358.91818,322.02629,367.25573,326.49055,369.47446Z"/><path fill="#4fba75" d="M326.49055,369.47446s3.77946-45.77222,40.61-93.72355l-.00176-.00194a8.26364,8.26364,0,0,1,3.7777,4.72048c.91641,3.00634-.389,5.70281-1.18671,7.35762-.57358,1.18011-1.82622,3.39531-10.20573,11.15509-2.34046,2.16245-3.82385,3.45465-3.56013,4.98419.25712,1.52954,2.15586,2.72285,3.79748,3.08545,2.78218.61973,3.90955-1.37131,6.40824-.712a5.2699,5.2699,0,0,1,3.79748,4.03482c.21757,1.8394-1.14715,3.26346-3.56014,5.69622a27.69318,27.69318,0,0,1-7.8323,5.93356c-4.29853,2.13608-5.59073,1.37131-8.06964,3.56014-.30327.2703-4.19964,3.78429-3.08545,6.40824a4.256,4.256,0,0,0,3.56013,2.13609c1.83282.15163,2.57781-.91641,5.45888-2.13609,2.38-1.00211,4.15349-1.75369,6.1709-1.424a7.69269,7.69269,0,0,1,5.93357,5.45887c.6,2.43277-.42195,4.64137-1.42406,6.40825-4.80618,8.44544-13.18569,13.87135-13.76586,14.24055a127.71172,127.71172,0,0,1-26.8197,12.81649"/><path fill="#4fba75" d="M329.58421 352.64521a36.45842 36.45842 0 01-5.91562-3.1573 35.19593 35.19593 0 01-5.2699-4.19067 20.77771 20.77771 0 01-4.01764-5.42563 13.19236 13.19236 0 01-1.09826-3.20361 11.34 11.34 0 01-.12006-3.35689A13.00869 13.00869 0 00314.8322 339.64a21.80752 21.80752 0 004.02975 5.18924 39.59435 39.59435 0 005.09152 4.24192A60.82784 60.82784 0 00329.58421 352.64521zM342.0861 317.14405a27.80443 27.80443 0 01-3.06259-3.70278 31.74862 31.74862 0 01-2.45712-4.15 22.73663 22.73663 0 01-1.61661-4.55956 12.82165 12.82165 0 01-.173-4.80675 20.57524 20.57524 0 002.3829 9.08058 40.03775 40.03775 0 002.28571 4.15854Q340.6911 315.19218 342.0861 317.14405z"/><path fill="#c0e2cc" d="M329.56016 352.39345a60.82911 60.82911 0 006.636.66581 39.59426 39.59426 0 006.6242-.19245 21.80762 21.80762 0 006.37406-1.59326 13.00875 13.00875 0 005.22131-3.94713 11.34009 11.34009 0 01-2.16736 2.56627 13.19376 13.19376 0 01-2.84213 1.84164 20.77729 20.77729 0 01-6.5105 1.78668 35.19815 35.19815 0 01-6.73291.042A36.45753 36.45753 0 01329.56016 352.39345zM341.649 316.74951q2.30278-.6755 4.53476-1.49983a40.04114 40.04114 0 004.36581-1.8595 20.57549 20.57549 0 007.48166-5.671 12.822 12.822 0 01-3.10431 3.674 22.73622 22.73622 0 01-4.08713 2.58811 31.75306 31.75306 0 01-4.49536 1.747A27.80269 27.80269 0 01341.649 316.74951z"/><path fill="#c0e2cc" d="M326.86424,366.394c.46564-3.872,1.21127-7.7059,2.02731-11.52106.87976-3.801,1.84064-7.58637,2.964-11.32435.55893-1.86982,1.09394-3.74809,1.74726-5.58795.644-1.84222,1.20745-3.71363,1.91787-5.53222l2.06034-5.48162,2.24707-5.408a202.1087,202.1087,0,0,1,10.50537-20.91812c1.88183-3.42134,4.0383-6.67788,6.11987-9.97668,1.02045-1.66316,2.20078-3.22063,3.31708-4.81914l3.38486-4.76931c-4.373,6.45553-8.64161,12.98027-12.38071,19.81536A214.19761,214.19761,0,0,0,340.433,321.799a208.71176,208.71176,0,0,0-8.09418,21.89551c-1.17978,3.71071-2.19083,7.47315-3.13513,11.25135C328.28532,358.72966,327.43574,362.53678,326.86424,366.394Z"/><polygon fill="#601f24" points="308.7 416.737 352.488 416.737 364.222 369.706 296.966 369.706 308.7 416.737"/><rect width="77.911" height="7.967" x="291.639" y="362.029" fill="#7a3c43" rx="3.984" transform="rotate(-180 330.594 366.012)"/><path fill="#f38584" d="M234.99192,258.11193s-7.14489,15.46287-16.62149,14.12378l1.85412,12.05176h2.98719s11.02169,9.99164,29.76888,7.21046l8.24052.48892s14.71061-23.56167-12.58612-37.05552Z"/><path fill="#ea7878" d="M220.22462,284.28739h1.41416s-2.92273-12.00276-3.26841-12.0518Z"/><path fill="#874106" d="M231.45225,268.98139c.84253-.09176,1.57665-.09335,2.29479-.17654a6.61676,6.61676,0,0,0,2.1345-.59076,2.03525,2.03525,0,0,1-.81416.988,3.0437,3.0437,0,0,1-1.22708.42526A3.31031,3.31031,0,0,1,231.45225,268.98139Z"/><path fill="#ea7878" d="M247.20111,254.67305l-12.43792,2.9c.89278,3.62509,3.68979,10.23751,11.994,7.3611a5.12653,5.12653,0,0,0,3.35856-3.40572C250.57481,259.82023,250.26729,257.42425,247.20111,254.67305Z"/><path fill="#f38584" d="M233.6669 253.17951s1.17118 13.39831 12.3601 9.54476a5.13407 5.13407 0 003.5117-4.01452c.29328-2.06649-.63831-4.93765-5.53776-8.1563a29.42909 29.42909 0 00-8.82567-3.81843c-3.32649-.85959-7.92868-1.89542-9.07935-1.384C226.09592 245.351 228.15605 247.20513 233.6669 253.17951zM219.09443 286.33905a1.71717 1.71717 0 01-1.68535-1.40074l-2.51648-13.44249a1.71677 1.71677 0 113.37487-.632l2.51649 13.44248a1.71679 1.71679 0 01-1.68953 2.0328z"/><path fill="#ea7878" d="M223.21174,284.28747a30.22048,30.22048,0,0,1,4.00177-1.21143l1.99008-.49293a4.2241,4.2241,0,0,0,1.83664-.79355,1.60156,1.60156,0,0,1-.66273.86935,5.01829,5.01829,0,0,1-.94122.55233,10.70775,10.70775,0,0,1-2.01683.6976A13.21571,13.21571,0,0,1,223.21174,284.28747Z"/><polygon fill="#c67773" points="182.961 322.052 211.632 386.819 195.178 394.049 166.257 345.183 182.961 322.052"/><path fill="#8c3e56" d="M182.96125,322.0522l-16.70436,23.13089,6.20142,10.47808c7.67161-13.62664,9.40974-27.13652,11.13608-32.17859Z"/><path fill="#f6b98a" d="M147.25368,265.21333s23.15857,25.78529,26.9814,24.53872c0,0,1.19118,4.32146,31.99544-18.39391,0,0,3.49041,5.05555,8.14429,1.98067l8.80913-5.23562s4.82009,7.06393,6.73151,5.52649c0,0,.58173-4.65388-10.09726-15.33288,0,0-.20777-1.53744-14.83425,4.94475a87.37872,87.37872,0,0,1-28.92055,6.98082s-7.38793-5.73425-13.29259-17.61826Z"/><path fill="#c67773" d="M133.92915,304.87716s56.456-9.58478,50.47245,15.34673c0,0-4.9309,23.96194-41.58021,73.825l-14.46027-6.7315s21.02556-43.0484,22.35524-55.18173l-15.79.33242Z"/><polygon fill="#874106" points="60.049 416.612 54.938 416.612 82.847 345.931 92.875 345.931 60.049 416.612"/><polygon fill="#874106" points="126.577 416.684 94.15 345.931 104.178 345.931 132.156 416.684 126.577 416.684"/><rect width="131.389" height="9.806" x="200.413" y="295.071" fill="#874106"/><polygon fill="#874106" points="315.846 416.737 310.149 416.737 298.145 304.877 315.846 304.877 315.846 416.737"/><path fill="#93d9e2" d="M211.13784,290.08033h55.8383a4.99043,4.99043,0,0,1,4.99043,4.99043v0a0,0,0,0,1,0,0H206.14741a0,0,0,0,1,0,0v0A4.99043,4.99043,0,0,1,211.13784,290.08033Z"/><path fill="#f6b98a" d="M128.36112 387.31734s-12.13063 23.78463-10.24692 25.89l18.6537.33336 2.203-6.33351L130.882 404.8802l6.28948-13.4615zM196.65758 393.39853s7.23115 17.0386 7.67437 19.698h16.01426l-1.70535-8.77033s-5.39915 1.52872-12.783-14.97019z"/><path fill="#93d9e2" d="M150.25922 408.34281a45.76133 45.76133 0 01-9.03153-5.54054 2.01285 2.01285 0 00-1.66263-.35932l-.46429.10411a2.01624 2.01624 0 00-1.41413 1.1672c-3.18537 7.41481-4.87534 8.70394-5.16265 8.88019H115.39683a1.96264 1.96264 0 000 3.92527l40.92923-.11571C160.315 415.07435 154.45618 410.005 150.25922 408.34281zM235.90355 408.34281a45.72521 45.72521 0 01-9.02421-5.53492 2.03241 2.03241 0 00-1.67923-.36275l-.445.0996a2.038 2.038 0 00-1.42852 1.17953c-3.18269 7.40626-4.87095 8.69406-5.15826 8.87018h-17.1274a1.96264 1.96264 0 000 3.92527h17.5353a1.94128 1.94128 0 00.63957-.11571h22.75459C245.95937 415.07435 240.10051 410.005 235.90355 408.34281z"/><path fill="#f6b98a" d="M144.7328,188.94566,128.98218,200.9044l4.199,24.275,8.3936-12.38265h0a14.34117,14.34117,0,0,1,7.69206-11.03931l.141-.0723Z"/><path fill="#f6b98a" d="M144.7328,188.94566s4.40457-2.90867,4.15525-2.99178c-.22964-.07655-7.22829-3.81964-.14757-9.15095a5.47334,5.47334,0,0,1,5.401-.82784c1.78227.76515,3.05294,2.5409-.10089,6.65459l10.305-8.3936L189.3602,186.2863s-6.18958,6.42463-8.45078,11.97074a5.76905,5.76905,0,0,0-.30044,1.02087l-.73686,3.57914a2.74444,2.74444,0,0,1-4.06481,1.84458,4.98432,4.98432,0,0,1-.82428-.63085l-.89049,1.45134a1.30043,1.30043,0,0,1-1.77.43949l-4.37119-2.583-2.50787,4.15955a1.16007,1.16007,0,0,1-1.81376.22131l-.69692-.69691s-5.85815,3.70553-13.525-5.37737Z"/><path fill="#020202" d="M184.90141,191.16529c-1.53174-3.85693-6.019-4.37695-6.06445-4.38183l.10351-.99414c.209.02148,5.13135.57861,6.89063,5.00683Z"/><ellipse cx="179.388" cy="192.519" fill="#020202" rx="2.576" ry="1.163" transform="rotate(-60 179.388 192.52)"/><path fill="#df7332" d="M140.02619,192.51918s-24.21393-26.926,12.85091-53.021c0,0,27.25844-13.463,41.22008,13.463,0,0,21.77352,2.65936,13.29681,22.77078s-41.88493,8.97534-43.0484-1.49589c0,0-.33242,5.65114-10.305,8.3936l-5.15252,3.3242Z"/><path fill="#f6b98a" d="M154.14153,175.97509a5.27228,5.27228,0,0,0-5.148.641c-7.49756,5.43057-.33785,9.26039-.10546,9.33777l5.15265-3.32427C157.19435,178.5159,155.92376,176.74025,154.14153,175.97509Z"/><path fill="#2c386c" d="M129.44148,200.33105s-2.16073,12.46575,12.13333,12.46575l36.04491,56.45027s26.53136-8.51348,27.36422-6.00552c1.50446,4.53034.40794.99037,1.24658,8.11659.15164,1.28854-19.40266,13.585-28.302,18.85726a6.25311,6.25311,0,0,1-7.56358-.91756l-31.117-30.46086s-16.28858,20.44384-5.31872,46.04018l-56.67762-3.57351S69.93829,250.19406,129.44148,200.33105Z"/><polygon fill="#874106" points="222.528 416.737 216.369 416.737 216.369 304.877 234.071 304.877 222.528 416.737"/><path fill="#cd6702" d="M298.98989,286.09906a3.23055,3.23055,0,0,1-1.4507,3.52384l-.60147-1.61234.17-.64972-.30074-.24843.31382-.18306-.18306-.20921a5.15026,5.15026,0,0,1,.375-1.586Z"/><path fill="#131d3a" d="M298.98988,286.09907a3.51559,3.51559,0,0,1-.05188,2.04486,2.74631,2.74631,0,0,1-.51947.91634,3.256,3.256,0,0,1-.81558.67486.12325.12325,0,0,1-.17035-.03692l-.01135-.02224-.003-.008-.61206-1.6082a.13744.13744,0,0,1-.00427-.08481l.176-.64793.04428.13719-.29825-.25111a.1297.1297,0,0,1-.01913-.18244.14621.14621,0,0,1,.03649-.031l.31534-.18-.03155.19331-.181-.21077a.12739.12739,0,0,1-.03061-.08991,4.70639,4.70639,0,0,1,.42114-1.61453.08487.08487,0,0,1,.11209-.04289l.009.0047C297.92012,285.39733,298.455,285.7615,298.98988,286.09907Zm0,0c-.58316-.30571-1.16635-.58479-1.72-.89027l.12079-.03811a5.17184,5.17184,0,0,0-.32871,1.55712l-.03049-.08956.18491.20736a.12613.12613,0,0,1-.01022.17811l-.02143.01544-.31192.1859.01737-.21318.30292.24548a.13615.13615,0,0,1,.04437.13753l-.16385.65111-.00427-.08443.59079,1.61612-.18448-.06712a2.94078,2.94078,0,0,0,1.29623-1.42975A3.775,3.775,0,0,0,298.98988,286.09907Z"/><path fill="#1f2a51" d="M302.0314,276.91984s1.42876.22873,3.15919-3.32163c0,0,2.41663,2.894,7.96594-.20884l.1284,1.59984a14.29338,14.29338,0,0,0,1.657,5.62246l.86991,1.61879s-5.19129-1.979-7.8466-.57681a5.28206,5.28206,0,0,0-6.47413-1.6409Z"/><path fill="#131d3a" d="M302.27975 276.90049a.75829.75829 0 01-.24836.01934l-.54028 3.09292a9.04472 9.04472 0 00.78891-3.09292zM305.98042 275.23524a6.165 6.165 0 00.81076 2.75915 9.68673 9.68673 0 001.75116 2.27973l-.15912-.02164a10.95972 10.95972 0 002.23425-1.58389 6.47253 6.47253 0 001.61924-2.20952 5.687 5.687 0 01-1.46924 2.36444 10.0759 10.0759 0 01-2.25638 1.68169.1347.1347 0 01-.15945-.02169 9.12068 9.12068 0 01-1.75788-2.38615A5.48426 5.48426 0 01305.98042 275.23524z"/><path fill="#1f2a51" d="M296.2932,276.91984s-1.42876.22873-3.15919-3.32163c0,0-2.41663,2.894-7.96594-.20884l-.1284,1.59984a14.29338,14.29338,0,0,1-1.657,5.62246l-.86991,1.61879s5.19128-1.979,7.8466-.57681a5.28205,5.28205,0,0,1,6.47412-1.6409Z"/><path fill="#131d3a" d="M296.83348 280.01275l-.54028-3.09292a.79746.79746 0 01-.27815-.026l-.00036.026A8.68722 8.68722 0 00296.83348 280.01275zM286.19566 275.82589a6.16493 6.16493 0 001.46664 2.47371 9.687 9.687 0 002.25959 1.777l-.15955.01831a10.96024 10.96024 0 001.77429-2.0863 6.47272 6.47272 0 001.02384-2.54078 5.68692 5.68692 0 01-.84027 2.6539 10.07646 10.07646 0 01-1.77158 2.18653.1347.1347 0 01-.15985.01834 9.12109 9.12109 0 01-2.29239-1.87853A5.48419 5.48419 0 01286.19566 275.82589z"/><ellipse cx="299.147" cy="276.92" fill="#1f2a51" rx="2.884" ry="5.311"/><path fill="#131d3a" d="M298.89541 280.37448a1.76224 1.76224 0 00-1.38505.92871 1.78972 1.78972 0 001.637.92727 1.6208 1.6208 0 001.38761-.6604A1.92615 1.92615 0 00298.89541 280.37448zM297.95253 270.05476a15.91291 15.91291 0 011.488 1.49333l-.22763.02551a16.0562 16.0562 0 011.25351-2.03262 16.06043 16.06043 0 01-1.00809 2.16486.13769.13769 0 01-.18545.05938.148.148 0 01-.04239-.03386A15.90654 15.90654 0 01297.95253 270.05476z"/><path fill="#cd6702" d="M298.85992,286.0881A3.13823,3.13823,0,0,0,300.3113,289.54l.60148-1.61235-.17-.64971.30074-.24844-.31381-.18305.18306-.20921a4.74169,4.74169,0,0,0-.36145-1.52881Z"/><path fill="#131d3a" d="M298.85991,286.0881a3.573,3.573,0,0,0,.22415,1.9452,2.95446,2.95446,0,0,0,1.29068,1.39461l-.18408.067.59039-1.61625-.00427.0845-.16376-.65114a.1361.1361,0,0,1,.0444-.13757l.30292-.24545.01736.21319-.31192-.18593a.12616.12616,0,0,1-.047-.17209l.01544-.02143.1849-.20733-.03054.08806a4.792,4.792,0,0,0-.31614-1.498l.12256.03846C300.03627,285.494,299.44859,285.77831,298.85991,286.0881Zm0,0c.53888-.34329,1.07876-.712,1.64764-1.055a.08588.08588,0,0,1,.11789.02921l.00491.00935a4.38891,4.38891,0,0,1,.40668,1.55923.12756.12756,0,0,1-.0307.08843l-.18094.21078-.03155-.19328.31536.18a.12968.12968,0,0,1,.04834.17691.146.146,0,0,1-.031.03652l-.29825.25116.04431-.13726.17609.64792a.13725.13725,0,0,1-.00431.08487L300.432,289.585l-.00275.00724a.12317.12317,0,0,1-.15893.07126l-.02265-.01143a3.29715,3.29715,0,0,1-.80542-.659,2.70851,2.70851,0,0,1-.52279-.89473A3.34326,3.34326,0,0,1,298.85991,286.0881Z"/><path fill="#131d3a" d="M297.24633,285.28827a1.86631,1.86631,0,0,0,1.71372.81079h.02984l-1.67721-.96494C297.29775,285.16607,297.26015,285.25545,297.24633,285.28827Z"/><path fill="#131d3a" d="M298.85991,286.08809a1.91317,1.91317,0,0,0,1.75941-.82177c-.014-.03337-.0527-.12516-.068-.15786l-1.69141.97963Z"/><ellipse cx="298.925" cy="283.354" fill="#1f2a51" rx="2.118" ry="2.745"/><ellipse cx="299.911" cy="284.185" fill="#cd6702" rx=".373" ry=".582"/><ellipse cx="298.088" cy="284.185" fill="#cd6702" rx=".373" ry=".582"/><ellipse cx="299.153" cy="276.497" fill="#131d3a" rx="1.642" ry="3.108"/><path fill="#161616" d="M321.33842,293.01881a.20714.20714,0,0,1-.207-.207v-22.8252H277.3892v22.8252a.207.207,0,0,1-.41406,0V269.77955a.20713.20713,0,0,1,.207-.207h44.15625a.20713.20713,0,0,1,.207.207v23.03223A.20714.20714,0,0,1,321.33842,293.01881Z"/><path fill="#93d9e2" d="M274.90147,291.02183h48.71718a1.6575,1.6575,0,0,1,1.6575,1.6575v2.63874a0,0,0,0,1,0,0H273.244a0,0,0,0,1,0,0v-2.63874A1.6575,1.6575,0,0,1,274.90147,291.02183Z"/><path fill="#139da0" d="M371.19,417.73658H43.63285a1,1,0,0,1,0-2H371.19a1,1,0,0,1,0,2Z"/><path fill="#161616" d="M292.5601,115.469a1.00036,1.00036,0,0,1-1-1V11.95875a1,1,0,0,1,2,0V114.469A1.00036,1.00036,0,0,1,292.5601,115.469Z"/><circle cx="292.56" cy="157.642" r="10.915" fill="#ffec8f"/><path fill="#139da0" d="M292.93956,113.72348h.00008a37.65427,37.65427,0,0,1,37.65427,37.65427v6.26432a0,0,0,0,1,0,0H255.2853a0,0,0,0,1,0,0v-6.26432a37.65427,37.65427,0,0,1,37.65427-37.65427Z"/><circle cx="298.312" cy="236.944" r="7.953" fill="#57c984"/><path fill="#4fba75" d="M291.87706,239.72844a7.95288,7.95288,0,0,1,3.714-10.25714c-.14677.05356-.293.11042-.43829.17328a7.95338,7.95338,0,1,0,6.31768,14.59836c.14525-.06286.28682-.13059.42634-.20089A7.95292,7.95292,0,0,1,291.87706,239.72844Z"/><ellipse cx="294.727" cy="234.103" fill="#4fba75" rx=".904" ry=".678" transform="rotate(-44.895 294.727 234.103)"/><ellipse cx="299.223" cy="236.42" fill="#4fba75" rx="1.045" ry=".791" transform="rotate(-23.401 299.223 236.42)"/><ellipse cx="303.471" cy="237.193" fill="#4fba75" rx="1.026" ry=".837" transform="rotate(-3.095 303.471 237.193)"/><ellipse cx="299.791" cy="241.989" fill="#4fba75" rx=".837" ry="1.063" transform="rotate(-53.401 299.79 241.989)"/><circle cx="294.144" cy="238.79" r=".633" fill="#4fba75"/><ellipse cx="299.386" cy="230.806" fill="#4fba75" rx=".882" ry="1.176" transform="rotate(-68.401 299.386 230.806)"/><circle cx="296.513" cy="241.929" r=".52" fill="#4fba75"/><circle cx="302.236" cy="233.747" r=".52" fill="#4fba75"/><path fill="#57c984" d="M290.175 229.61841a5.49652 5.49652 0 011.787 2.53531l1.73433-1.68837s-.988.2248-2.85019-1.63015zM300.77476 226.33948a5.49646 5.49646 0 01-1.40564 2.76505l2.30333.74373s-.66065-.76828.10846-3.28165zM291.18536 240.02778a8.04775 8.04775 0 01-.28578-.76431c-.13888.33855-.63712 1.12569-2.401 2.006l.5284.88583a5.401 5.401 0 012.84288-.87229A7.99005 7.99005 0 01291.18536 240.02778zM306.22654 237.7241a7.97628 7.97628 0 01-.4456 1.94546 5.60588 5.60588 0 012.80132.25657l.21-1.00986A5.25777 5.25777 0 01306.22654 237.7241zM306.46443 243.99323a5.49654 5.49654 0 01-1.80723-2.521l-1.72079 1.70217s.98619-.23269 2.86311 1.60734zM300.38106 247.64407a5.49656 5.49656 0 01.152-3.0981l-2.40608.26326s.91707.43092 1.24306 3.039zM308.61378 233.73263a5.49656 5.49656 0 01-3.09636.184l.522 2.36348s.32919-.9583 2.88675-1.56449zM304.33754 231.75a7.25289 7.25289 0 011.41033-1.65911l-.75137-.70668a4.62046 4.62046 0 01-1.77227 1.30284A7.90554 7.90554 0 01304.33754 231.75zM293.84819 243.52509a7.61151 7.61151 0 01-.81231 1.85492l.92841.44944a4.35821 4.35821 0 011.13454-1.61156A7.98293 7.98293 0 01293.84819 243.52509zM290.59088 235.90178a7.9738 7.9738 0 01.29686-1.38075 7.79276 7.79276 0 01-1.91733-.34186l-.21368 1.00906A4.3563 4.3563 0 01290.59088 235.90178zM295.47427 229.515a7.95672 7.95672 0 011.29976-.37452 3.13164 3.13164 0 01-.90818-1.67533l-.60967.22605A3.37036 3.37036 0 01295.47427 229.515z"/><path fill="#4fba75" d="M289.81218 229.99956a.2826.2826 0 01-.32218-.44864l1.23-1.36239a.28256.28256 0 11.41951.37865l-1.23 1.36239A.27941.27941 0 01289.81218 229.99956zM302.24291 226.8734a.28206.28206 0 01-.16925.01731l-1.79737-.37223a.28266.28266 0 01.1145-.55361l1.79737.37223a.28267.28267 0 01.05475.5363zM308.77287 240.64642a.28263.28263 0 01-.38926-.31455l.35732-1.80054a.28267.28267 0 11.55451.1101l-.35732 1.80054A.28254.28254 0 01308.77287 240.64642zM305.77276 245.48479a.28264.28264 0 01-.328-.44211l1.18736-1.39986a.28263.28263 0 01.4311.36561l-1.18736 1.39985A.2818.2818 0 01305.77276 245.48479zM300.86072 247.8678a.28508.28508 0 01-.03321.012l-1.76165.51576a.28259.28259 0 11-.15875-.54242l1.76164-.51576a.28261.28261 0 01.192.53045zM294.3803 246.33229a.28247.28247 0 01-.2553-.01543l-1.58358-.9283a.28265.28265 0 01.28575-.48777l1.58358.9283a.28269.28269 0 01-.03045.5032zM289.29253 242.83349a.28265.28265 0 01-.35638-.11765l-.92187-1.5872a.28265.28265 0 01.48892-.28376l.92187 1.58719a.2825.2825 0 01-.10253.38623A.26.26 0 01289.29253 242.83349zM288.7476 235.85653a.28264.28264 0 01-.38736-.32338l.415-1.788a.28261.28261 0 01.55057.12785l-.415 1.788A.28179.28179 0 01288.7476 235.85653zM306.08418 230.72655a.28262.28262 0 01-.32951-.07874l-1.17322-1.41166a.28263.28263 0 11.43469-.36135l1.17322 1.41165a.28261.28261 0 01-.10518.4401zM309.23445 235.35516l-.02181.00844a.28282.28282 0 01-.35845-.1771l-.58878-1.73857a.28267.28267 0 01.5355-.18122l.58879 1.73857A.28275.28275 0 01309.23445 235.35516zM296.17087 227.46448l-.02383.0091-1.10858.36668a.28265.28265 0 11-.17753-.5367l1.10858-.36668a.28265.28265 0 01.20136.5276z"/><circle cx="298.87" cy="196.447" r="6.968" fill="#57c984"/><path fill="#4fba75" d="M293.23305,198.88678a6.96708,6.96708,0,0,1,3.25363-8.98571c-.12857.04692-.25671.09673-.384.1518a6.96752,6.96752,0,1,0,5.53458,12.78882c.12724-.05507.25126-.1144.37349-.176A6.96711,6.96711,0,0,1,293.23305,198.88678Z"/><ellipse cx="295.73" cy="193.959" fill="#4fba75" rx=".792" ry=".594" transform="rotate(-44.895 295.73 193.959)"/><ellipse cx="299.669" cy="195.988" fill="#4fba75" rx=".915" ry=".693" transform="rotate(-23.401 299.669 195.988)"/><ellipse cx="303.39" cy="196.666" fill="#4fba75" rx=".899" ry=".733" transform="rotate(-3.095 303.39 196.665)"/><ellipse cx="300.166" cy="200.867" fill="#4fba75" rx=".733" ry=".931" transform="rotate(-53.401 300.166 200.867)"/><circle cx="295.219" cy="198.065" r=".555" fill="#4fba75"/><ellipse cx="299.811" cy="191.07" fill="#4fba75" rx=".773" ry="1.03" transform="rotate(-68.401 299.811 191.07)"/><circle cx="297.294" cy="200.815" r=".456" fill="#4fba75"/><circle cx="302.308" cy="193.647" r=".456" fill="#4fba75"/><path fill="#57c984" d="M291.74192 190.02994a4.81524 4.81524 0 011.56553 2.221l1.51935-1.47909s-.86555.19694-2.49689-1.42809zM301.02783 187.15745a4.81518 4.81518 0 01-1.23141 2.42231l2.01783.65154s-.57876-.673.095-2.87487zM292.62708 199.149a7.05286 7.05286 0 01-.25035-.66957c-.12166.29658-.55815.98616-2.10341 1.75734l.4629.776a4.7315 4.7315 0 012.49049-.76416A7.0003 7.0003 0 01292.62708 199.149zM305.80384 197.13089a6.98763 6.98763 0 01-.39037 1.70431 4.911 4.911 0 012.45408.22477l.18395-.88469A4.606 4.606 0 01305.80384 197.13089zM306.01224 202.62293a4.81519 4.81519 0 01-1.58322-2.20847l-1.50749 1.49117s.86395-.20384 2.50822 1.40811zM300.68293 205.82123a4.81521 4.81521 0 01.13313-2.71407l-2.10783.23062s.8034.37751 1.089 2.66233zM307.89516 193.63418a4.81518 4.81518 0 01-2.71255.16123l.45727 2.07051s.28839-.83951 2.52892-1.37056zM304.149 191.89732a6.35373 6.35373 0 011.23551-1.45345l-.65823-.61909a4.04779 4.04779 0 01-1.55259 1.14135A6.92533 6.92533 0 01304.149 191.89732zM294.95985 202.21282a6.66818 6.66818 0 01-.71162 1.625l.81333.39373a3.81791 3.81791 0 01.9939-1.4118A6.993 6.993 0 01294.95985 202.21282zM292.10629 195.53445a6.986 6.986 0 01.26007-1.20959 6.82654 6.82654 0 01-1.67967-.29949l-.1872.884A3.81646 3.81646 0 01292.10629 195.53445zM296.38436 189.93935a6.97235 6.97235 0 011.13865-.3281 2.74341 2.74341 0 01-.79561-1.46766l-.53409.198A2.9526 2.9526 0 01296.38436 189.93935z"/><path fill="#4fba75" d="M291.42412 190.36385a.24757.24757 0 01-.28224-.393l1.07757-1.19351a.24753.24753 0 11.3675.33171l-1.07757 1.19352A.245.245 0 01291.42412 190.36385zM302.314 187.62519a.247.247 0 01-.14827.01516l-1.57457-.32608a.24763.24763 0 01.1003-.485l1.57458.32609a.24763.24763 0 01.048.46982zM308.03453 199.691a.24758.24758 0 01-.341-.27555l.313-1.57736a.24763.24763 0 11.48577.09645l-.313 1.57736A.24749.24749 0 01308.03453 199.691zM305.4063 203.92961a.24761.24761 0 01-.28732-.38732l1.04018-1.22634a.24759.24759 0 01.37766.32029l-1.04018 1.22634A.247.247 0 01305.4063 203.92961zM301.10314 206.01723l-.0291.01048-1.54328.45184a.24756.24756 0 11-.13907-.47519l1.54327-.45183a.24758.24758 0 01.16818.4647zM295.426 204.67205a.24741.24741 0 01-.22365-.01352l-1.3873-.81323a.24762.24762 0 01.25033-.42731l1.38729.81323a.24765.24765 0 01-.02667.44083zM290.96888 201.607a.24761.24761 0 01-.3122-.10307l-.8076-1.39046a.24761.24761 0 01.42831-.24859l.8076 1.39046a.24747.24747 0 01-.08982.33835A.22752.22752 0 01290.96888 201.607zM290.4915 195.49482a.24761.24761 0 01-.33935-.2833l.36354-1.56637a.24758.24758 0 01.48232.112l-.36354 1.56637A.2469.2469 0 01290.4915 195.49482zM305.67913 191.00073a.24762.24762 0 01-.28868-.069l-1.02779-1.23667a.2476.2476 0 01.38081-.31657l1.02779 1.23668a.24762.24762 0 01-.09213.38555zM308.4389 195.0556l-.01911.00739a.24776.24776 0 01-.314-.15515l-.5158-1.52306a.24763.24763 0 01.46912-.15876l.5158 1.52306A.2477.2477 0 01308.4389 195.0556zM296.99461 188.143l-.02087.008-.97116.32122a.24761.24761 0 11-.15553-.47017l.97117-.32123a.24761.24761 0 01.17639.4622z"/><circle cx="250.88" cy="221.113" r="11.849" fill="#57c984"/><path fill="#4fba75" d="M241.29384,225.26168a11.848,11.848,0,0,1,5.533-15.28085c-.21865.07981-.43656.16451-.65295.25816a11.84876,11.84876,0,1,0,9.41193,21.74829c.21639-.09365.42729-.19455.63515-.29929A11.84806,11.84806,0,0,1,241.29384,225.26168Z"/><ellipse cx="245.54" cy="216.881" fill="#4fba75" rx="1.347" ry="1.011" transform="rotate(-44.895 245.54 216.881)"/><ellipse cx="252.238" cy="220.333" fill="#4fba75" rx="1.557" ry="1.179" transform="rotate(-23.401 252.238 220.333)"/><ellipse cx="258.567" cy="221.485" fill="#4fba75" rx="1.528" ry="1.246" transform="rotate(-3.095 258.566 221.484)"/><ellipse cx="253.083" cy="228.629" fill="#4fba75" rx="1.246" ry="1.583" transform="rotate(-53.401 253.083 228.629)"/><circle cx="244.671" cy="223.864" r=".943" fill="#4fba75"/><ellipse cx="252.48" cy="211.969" fill="#4fba75" rx="1.314" ry="1.752" transform="rotate(-68.401 252.48 211.97)"/><circle cx="248.2" cy="228.54" r=".775" fill="#4fba75"/><circle cx="256.726" cy="216.351" r=".775" fill="#4fba75"/><path fill="#57c984" d="M238.75807 210.2s1.38189.81837 2.6623 3.777l2.58376-2.5153s-1.47192.33491-4.24614-2.42856zM254.54942 205.31513s-.07734 1.60417-2.09409 4.1193l3.43145 1.108s-.98422-1.14456.16157-4.88891zM240.26336 225.70763a11.9919 11.9919 0 01-.42575-1.13865c-.20689.50436-.94916 1.677-3.577 2.98848l.78719 1.31969s1.17108-1.00369 4.23526-1.29951A11.90242 11.90242 0 01240.26336 225.70763zM262.67135 222.27566a11.8818 11.8818 0 01-.66385 2.8983 8.35163 8.35163 0 014.17334.38224l.31282-1.50447A7.83283 7.83283 0 01262.67135 222.27566zM263.02576 231.61526s-1.38838-.80731-2.69237-3.75566l-2.5636 2.53585s1.4692-.34666 4.2654 2.39458zM253.9629 237.0542s-.58544-1.49552.22639-4.61548l-3.58451.39219s1.36623.642 1.85188 4.52749zM266.2278 216.32926s-1.42342.74378-4.61288.27418l.77762 3.52106s.49042-1.42765 4.30061-2.33075zM259.85717 213.37561a10.805 10.805 0 012.10107-2.4717l-1.11937-1.0528a6.88346 6.88346 0 01-2.64029 1.94094A11.77673 11.77673 0 01259.85717 213.37561zM244.23039 230.91784a11.34 11.34 0 01-1.21016 2.76341l1.38312.66956a6.49262 6.49262 0 011.69021-2.40086A11.8931 11.8931 0 01244.23039 230.91784zM239.37772 219.5608a11.8787 11.8787 0 01.44226-2.057 11.60863 11.60863 0 01-2.8564-.5093l-.31834 1.50328A6.4901 6.4901 0 01239.37772 219.5608zM246.65287 210.04594a11.85456 11.85456 0 011.93636-.558 4.6654 4.6654 0 01-1.353-2.49587l-.90826.33676A5.02108 5.02108 0 01246.65287 210.04594z"/><path fill="#4fba75" d="M238.21763 210.76783a.421.421 0 01-.48-.66837l1.83248-2.02966a.421.421 0 11.625.56411l-1.83249 2.02965A.41634.41634 0 01238.21763 210.76783zM256.73663 206.11055a.42027.42027 0 01-.25215.02579l-2.67767-.55454a.4211.4211 0 01.17058-.82475l2.67767.55453a.42113.42113 0 01.08157.799zM266.46481 226.62926a.421.421 0 01-.5799-.4686l.53232-2.68241a.42111.42111 0 01.8261.164l-.53233 2.6824A.4209.4209 0 01266.46481 226.62926zM261.99531 233.83736a.42108.42108 0 01-.48861-.65866l1.7689-2.08548a.42106.42106 0 01.64225.54468l-1.7689 2.08547A.41994.41994 0 01261.99531 233.83736zM254.67748 237.3875a.42336.42336 0 01-.04948.01783l-2.62446.76838a.421.421 0 11-.2365-.80809l2.62445-.76837a.421.421 0 01.286.79025zM245.02311 235.09993a.42076.42076 0 01-.38034-.023l-2.35918-1.383a.42109.42109 0 01.4257-.72667l2.35918 1.383a.42113.42113 0 01-.04536.74965zM237.44347 229.88751a.4211.4211 0 01-.53093-.17527l-1.37338-2.36457a.42109.42109 0 01.72838-.42275l1.37339 2.36457a.42085.42085 0 01-.15275.57538A.38594.38594 0 01237.44347 229.88751zM236.63165 219.4934a.42107.42107 0 01-.57709-.48177l.61822-2.66372a.421.421 0 01.82022.19047l-.61823 2.66372A.41981.41981 0 01236.63165 219.4934zM262.45927 211.85089a.42107.42107 0 01-.4909-.11732l-1.74784-2.103a.42107.42107 0 11.6476-.53834l1.74783 2.103a.42107.42107 0 01-.15669.65566zM267.15247 218.74648l-.0325.01257a.42133.42133 0 01-.534-.26385l-.87716-2.59007a.42111.42111 0 01.79778-.27l.87716 2.59007A.42125.42125 0 01267.15247 218.74648zM247.69065 206.99112c-.01157.005-.02336.00951-.0355.01357l-1.65153.54626a.42109.42109 0 11-.26448-.79957l1.65153-.54626a.42108.42108 0 01.3.786z"/><circle cx="321.795" cy="198.814" r="1.828" fill="#3ca05d"/><circle cx="260.484" cy="256.953" r="2.267" fill="#3ca05d"/><circle cx="276.718" cy="215.537" r="2.059" fill="#3ca05d"/><circle cx="329.072" cy="226.314" r="1.616" fill="#3ca05d"/><path fill="#8c3e56" d="M132.15625 316.43047l2.28518-.00658a.05654.05654 0 11.00032.11308l-.00279-.00006zM139.065 316.43137l4.62334.01581a.23538.23538 0 01-.00161.47076l-.00868-.00019-4.61961-.18626a.15012.15012 0 01.00656-.30012zM148.31137 316.47661l4.62262.049a.35906.35906 0 11-.00762.71808l-.00808-.00017-4.62035-.15311a.307.307 0 01.01343-.61377zM157.55661 316.57454c.78616.01983 1.51684-.00954 2.34884.05072a7.55794 7.55794 0 012.37128.61669.46323.46323 0 11-.37572.84686l-.00961-.0044a6.65615 6.65615 0 00-2.07634-.58951c-.7057-.06912-1.5211-.06307-2.27643-.09831l-.01155-.00055a.411.411 0 01.02953-.8215zM165.82908 320.54251a7.61824 7.61824 0 01.84726 4.787.51018.51018 0 01-1.00905-.15145l.001-.00636a6.61354 6.61354 0 00-.70673-4.16089.49293.49293 0 01.86752-.46833zM164.88166 329.73779l-2.06167 4.1374a.54463.54463 0 01-.97492-.4858l.00184-.00362 2.09245-4.12193a.52739.52739 0 01.9423.474zM160.75833 338.01261l-2.07593 4.13023a.56312.56312 0 01-1.00629-.50578l.00014-.00027 2.0782-4.1291a.56185.56185 0 011.00388.50492zM156.58984 346.26472l-2.09254 4.12187a.52845.52845 0 01-.94419-.47489l2.06157-4.13745a.54579.54579 0 01.977.48681zM152.40474 354.50846l-2.09256 4.12188a.49376.49376 0 01-.88222-.44372l2.06157-4.13746a.51111.51111 0 01.91493.45588zM148.20976 362.74725l-2.12389 4.10612a.413.413 0 01-.73785-.37111l2.03024-4.15322a.4654.4654 0 11.83624.40879zM143.962 370.95948l-2.1239 4.10612a.30815.30815 0 01-.55054-.27691l2.03024-4.15321a.36056.36056 0 11.64786.3167zM139.69722 379.16317l-2.15371 4.09112a.15093.15093 0 01-.26963-.13562l2.00041-4.16822a.23675.23675 0 01.42688.20487zM135.383 387.34064l-1.07731 2.01533.97567-2.06645a.0569.0569 0 11.10291.04859z"/><path fill="#4fba75" d="M64.55463,292.06407,48.6347,290.99893a3.67749,3.67749,0,0,1-3.38176-3.10777l-5.76137-36.76549a3.69485,3.69485,0,0,1,2.94443-4.20592l16.00885-3.06258a3.67246,3.67246,0,0,1,4.32179,3.11546l5.67244,40.89322A3.68807,3.68807,0,0,1,64.55463,292.06407Z"/><path fill="#4fba75" d="M138.50916,345.931H48.23865a3.23186,3.23186,0,0,1-3.23187-3.23186V284.02827a3.23186,3.23186,0,0,1,3.84523-3.17312l90.27051,17.44919a3.23187,3.23187,0,0,1,2.6185,3.17313v41.22171A3.23186,3.23186,0,0,1,138.50916,345.931Z"/><line x1="338.25" x2="410.61" y1="15.465" y2="15.465" fill="none" stroke="#a0a0a0" stroke-miterlimit="10"/><line x1="374.43" x2="374.43" y1="15.465" y2="33.84" fill="none" stroke="#a0a0a0" stroke-miterlimit="10"/><line x1="331.77" x2="391.53" y1="33.84" y2="33.84" fill="none" stroke="#a0a0a0" stroke-miterlimit="10"/><line x1="347.61" x2="347.61" y1="33.84" y2="48.96" fill="none" stroke="#a0a0a0" stroke-miterlimit="10"/><line x1="334.65" x2="385.77" y1="48.96" y2="48.96" fill="none" stroke="#a0a0a0" stroke-miterlimit="10"/><line x1="347.61" x2="347.61" y1="15.465" fill="none" stroke="#a0a0a0" stroke-miterlimit="10"/><line x1="390.09" x2="390.09" y1="15.465" fill="none" stroke="#a0a0a0" stroke-miterlimit="10"/><line x1="391.53" x2="391.53" y1="49.133" y2="33.667" fill="none" stroke="#a0a0a0" stroke-miterlimit="10"/><line x1="377.67" x2="450.03" y1="241.621" y2="241.621" fill="none" stroke="#a0a0a0" stroke-miterlimit="10"/><line x1="413.85" x2="413.85" y1="241.621" y2="259.996" fill="none" stroke="#a0a0a0" stroke-miterlimit="10"/><line x1="371.19" x2="430.95" y1="259.996" y2="259.996" fill="none" stroke="#a0a0a0" stroke-miterlimit="10"/><line x1="387.03" x2="387.03" y1="259.996" y2="275.116" fill="none" stroke="#a0a0a0" stroke-miterlimit="10"/><line x1="374.07" x2="425.19" y1="275.116" y2="275.116" fill="none" stroke="#a0a0a0" stroke-miterlimit="10"/><line x1="387.03" x2="387.03" y1="241.621" y2="226.156" fill="none" stroke="#a0a0a0" stroke-miterlimit="10"/><line x1="429.51" x2="429.51" y1="241.621" y2="226.156" fill="none" stroke="#a0a0a0" stroke-miterlimit="10"/><line x1="430.95" x2="430.95" y1="275.289" y2="259.824" fill="none" stroke="#a0a0a0" stroke-miterlimit="10"/><line x1="53.425" x2="125.785" y1="143.474" y2="143.474" fill="none" stroke="#a0a0a0" stroke-miterlimit="10"/><line x1="89.605" x2="89.605" y1="143.474" y2="161.849" fill="none" stroke="#a0a0a0" stroke-miterlimit="10"/><line x1="46.945" x2="106.705" y1="161.849" y2="161.849" fill="none" stroke="#a0a0a0" stroke-miterlimit="10"/><line x1="62.785" x2="62.785" y1="161.849" y2="176.969" fill="none" stroke="#a0a0a0" stroke-miterlimit="10"/><line x1="49.825" x2="100.945" y1="176.969" y2="176.969" fill="none" stroke="#a0a0a0" stroke-miterlimit="10"/><line x1="62.785" x2="62.785" y1="143.474" y2="128.009" fill="none" stroke="#a0a0a0" stroke-miterlimit="10"/><line x1="105.265" x2="105.265" y1="143.474" y2="128.009" fill="none" stroke="#a0a0a0" stroke-miterlimit="10"/><line x1="106.705" x2="106.705" y1="177.142" y2="161.677" fill="none" stroke="#a0a0a0" stroke-miterlimit="10"/></g></g></svg>